<svg width="24" height="24" viewBox="0 0 24 24" fill="none" xmlns="http://www.w3.org/2000/svg">
<path fill-rule="evenodd" clip-rule="evenodd" d="M8.86649 9.0625C8.86649 9.6145 8.41849 10.0625 7.86649 10.0625C7.31449 10.0625 6.86649 9.6145 6.86699 9.0625V5.1625C6.86699 2.316 9.18299 0 12.029 0C14.8755 0 17.1915 2.316 17.1915 5.1625V9.0625C17.1915 9.6145 16.7435 10.0625 16.1915 10.0625C15.6395 10.0625 15.1915 9.6145 15.1915 9.0625V5.1625C15.1915 3.419 13.7725 2 12.029 2C10.285 2 8.86649 3.419 8.86649 5.1625V9.0625ZM18.1915 7.8155H23.5C23.7765 7.8155 23.9465 8.0325 23.8815 8.301L20.3835 22.55C20.171 23.3505 19.329 24 18.5 24H5.49999C4.67149 24 3.82899 23.351 3.61749 22.55L0.118985 8.301C0.0534852 8.033 0.223985 7.8155 0.499985 7.8155H5.86699V9.0625C5.86699 10.1655 6.76399 11.0625 7.86699 11.0625C8.96999 11.0625 9.86699 10.1655 9.86699 9.0625V7.8155H14.1915V9.0625C14.1915 10.1655 15.089 11.0625 16.1915 11.0625C17.2945 11.0625 18.1915 10.1655 18.1915 9.0625V7.8155Z" fill="#006CD0"/>
</svg>
