<svg width="24" height="24" viewBox="0 0 24 24" fill="none" xmlns="http://www.w3.org/2000/svg">
<path fill-rule="evenodd" clip-rule="evenodd" d="M24 14V10H20.662C20.435 9 20.043 8.072 19.516 7.234L21.825 4.923L18.995 2.094L16.724 4.402C15.887 3.875 15 3.482 14 3.254V0H10V3.254C9 3.482 8.039 3.875 7.201 4.402L4.872 2.092L2.033 4.922L4.339 7.234C3.812 8.072 3.415 9 3.188 10H0V14H3.188C3.415 15 3.807 15.919 4.335 16.757L2.025 19.065L4.854 21.894L7.201 19.582C8.039 20.109 9 20.502 10 20.729V24H14V20.729C15 20.503 15.885 20.11 16.723 19.583L19.014 21.894L21.834 19.064L19.52 16.758C20.047 15.919 20.435 15 20.661 14H24ZM11.925 14.992C10.268 14.992 8.925 13.648 8.925 11.992C8.925 10.334 10.268 8.992 11.925 8.992C13.582 8.992 14.925 10.334 14.925 11.992C14.925 13.648 13.582 14.992 11.925 14.992Z" fill="#006CD0"/>
</svg>
