<svg width="24" height="21" viewBox="0 0 24 21" fill="none" xmlns="http://www.w3.org/2000/svg">
<path fill-rule="evenodd" clip-rule="evenodd" d="M21.981 3.655V0.009H2V3.677L0 7.966V8.179C0 9.605 0.818 10.831 2 11.454V21H4.999V14H9V21H22V11.418C23.146 10.784 23.978 9.577 23.978 8.179V7.968L21.981 3.655ZM12.948 4.94H16.544V8.178C16.544 9.168 15.737 9.976 14.746 9.976C13.755 9.976 12.948 9.168 12.948 8.178V4.94ZM5.515 8.179C5.515 9.169 4.708 9.977 3.716 9.977C2.789 9.977 2.025 9.272 1.929 8.37L3.525 4.945L3.55 4.94H5.515V8.179ZM11.03 8.179C11.03 9.169 10.222 9.977 9.231 9.977C8.239 9.977 7.432 9.169 7.432 8.179V4.94H11.03V8.179ZM19.017 18.03H11.999V14H19.017V18.03ZM20.261 9.977C19.269 9.977 18.462 9.169 18.462 8.179V4.94H20.435L20.464 4.944L22.049 8.368C21.954 9.271 21.188 9.977 20.261 9.977Z" fill="#006CD0"/>
</svg>
